<svg id="visual" viewBox="0 0 960 300" width="960" height="300" xmlns="http://www.w3.org/2000/svg" xmlns:xlink="http://www.w3.org/1999/xlink" version="1.1"><rect x="0" y="0" width="960" height="300" fill="#001220"></rect><path d="M0 208L22.8 210.7C45.7 213.3 91.3 218.7 137 210.3C182.7 202 228.3 180 274 167.5C319.7 155 365.3 152 411.2 157.7C457 163.3 503 177.7 548.8 190.3C594.7 203 640.3 214 686 209.3C731.7 204.7 777.3 184.3 823 185.2C868.7 186 914.3 208 937.2 219L960 230L960 0L937.2 0C914.3 0 868.7 0 823 0C777.3 0 731.7 0 686 0C640.3 0 594.7 0 548.8 0C503 0 457 0 411.2 0C365.3 0 319.7 0 274 0C228.3 0 182.7 0 137 0C91.3 0 45.7 0 22.8 0L0 0Z" fill="#fcaf3c"></path><path d="M0 91L22.8 100.3C45.7 109.7 91.3 128.3 137 135.7C182.7 143 228.3 139 274 129.2C319.7 119.3 365.3 103.7 411.2 94.7C457 85.7 503 83.3 548.8 96.3C594.7 109.3 640.3 137.7 686 140C731.7 142.3 777.3 118.7 823 116.8C868.7 115 914.3 135 937.2 145L960 155L960 0L937.2 0C914.3 0 868.7 0 823 0C777.3 0 731.7 0 686 0C640.3 0 594.7 0 548.8 0C503 0 457 0 411.2 0C365.3 0 319.7 0 274 0C228.3 0 182.7 0 137 0C91.3 0 45.7 0 22.8 0L0 0Z" fill="#fb9021"></path><path d="M0 77L22.8 83.3C45.7 89.7 91.3 102.3 137 95.8C182.7 89.3 228.3 63.7 274 55.3C319.7 47 365.3 56 411.2 71C457 86 503 107 548.8 105.2C594.7 103.3 640.3 78.7 686 65.5C731.7 52.3 777.3 50.7 823 50.5C868.7 50.3 914.3 51.7 937.2 52.3L960 53L960 0L937.2 0C914.3 0 868.7 0 823 0C777.3 0 731.7 0 686 0C640.3 0 594.7 0 548.8 0C503 0 457 0 411.2 0C365.3 0 319.7 0 274 0C228.3 0 182.7 0 137 0C91.3 0 45.7 0 22.8 0L0 0Z" fill="#fa6d10"></path><path d="M0 43L22.8 50.8C45.7 58.7 91.3 74.3 137 82C182.7 89.7 228.3 89.3 274 75C319.7 60.7 365.3 32.3 411.2 26.3C457 20.3 503 36.7 548.8 40.8C594.7 45 640.3 37 686 42C731.7 47 777.3 65 823 66.3C868.7 67.7 914.3 52.3 937.2 44.7L960 37L960 0L937.2 0C914.3 0 868.7 0 823 0C777.3 0 731.7 0 686 0C640.3 0 594.7 0 548.8 0C503 0 457 0 411.2 0C365.3 0 319.7 0 274 0C228.3 0 182.7 0 137 0C91.3 0 45.7 0 22.8 0L0 0Z" fill="#f7400f"></path></svg>