<svg id="visual" viewBox="0 0 960 540" width="960" height="540" xmlns="http://www.w3.org/2000/svg" xmlns:xlink="http://www.w3.org/1999/xlink" version="1.1"><rect x="0" y="0" width="960" height="540" fill="#001220"></rect><defs><linearGradient id="grad1_0" x1="43.8%" y1="100%" x2="100%" y2="0%"><stop offset="14.444444444444446%" stop-color="#cccccc" stop-opacity="1"></stop><stop offset="85.55555555555554%" stop-color="#cccccc" stop-opacity="1"></stop></linearGradient></defs><defs><linearGradient id="grad1_1" x1="43.8%" y1="100%" x2="100%" y2="0%"><stop offset="14.444444444444446%" stop-color="#cccccc" stop-opacity="1"></stop><stop offset="85.55555555555554%" stop-color="#83888e" stop-opacity="1"></stop></linearGradient></defs><defs><linearGradient id="grad1_2" x1="43.8%" y1="100%" x2="100%" y2="0%"><stop offset="14.444444444444446%" stop-color="#404954" stop-opacity="1"></stop><stop offset="85.55555555555554%" stop-color="#83888e" stop-opacity="1"></stop></linearGradient></defs><defs><linearGradient id="grad1_3" x1="43.8%" y1="100%" x2="100%" y2="0%"><stop offset="14.444444444444446%" stop-color="#404954" stop-opacity="1"></stop><stop offset="85.55555555555554%" stop-color="#001220" stop-opacity="1"></stop></linearGradient></defs><defs><linearGradient id="grad2_0" x1="0%" y1="100%" x2="56.3%" y2="0%"><stop offset="14.444444444444446%" stop-color="#cccccc" stop-opacity="1"></stop><stop offset="85.55555555555554%" stop-color="#cccccc" stop-opacity="1"></stop></linearGradient></defs><defs><linearGradient id="grad2_1" x1="0%" y1="100%" x2="56.3%" y2="0%"><stop offset="14.444444444444446%" stop-color="#83888e" stop-opacity="1"></stop><stop offset="85.55555555555554%" stop-color="#cccccc" stop-opacity="1"></stop></linearGradient></defs><defs><linearGradient id="grad2_2" x1="0%" y1="100%" x2="56.3%" y2="0%"><stop offset="14.444444444444446%" stop-color="#83888e" stop-opacity="1"></stop><stop offset="85.55555555555554%" stop-color="#404954" stop-opacity="1"></stop></linearGradient></defs><defs><linearGradient id="grad2_3" x1="0%" y1="100%" x2="56.3%" y2="0%"><stop offset="14.444444444444446%" stop-color="#001220" stop-opacity="1"></stop><stop offset="85.55555555555554%" stop-color="#404954" stop-opacity="1"></stop></linearGradient></defs><g transform="translate(960, 540)"><path d="M-351 0C-321.2 -49.1 -291.4 -98.3 -265.9 -153.5C-240.3 -208.7 -219.1 -270 -175.5 -304C-131.9 -337.9 -66 -344.5 0 -351L0 0Z" fill="#212d39"></path><path d="M-263.2 0C-240.9 -36.9 -218.5 -73.7 -199.4 -115.1C-180.3 -156.5 -164.3 -202.5 -131.6 -228C-98.9 -253.4 -49.5 -258.3 0 -263.2L0 0Z" fill="#616770"></path><path d="M-175.5 0C-160.6 -24.6 -145.7 -49.1 -132.9 -76.8C-120.2 -104.4 -109.5 -135 -87.8 -152C-66 -169 -33 -172.2 0 -175.5L0 0Z" fill="#a7a9ac"></path><path d="M-87.7 0C-80.3 -12.3 -72.8 -24.6 -66.5 -38.4C-60.1 -52.2 -54.8 -67.5 -43.9 -76C-33 -84.5 -16.5 -86.1 0 -87.7L0 0Z" fill="#cccccc"></path></g><g transform="translate(0, 0)"><path d="M351 0C347.5 71.3 344 142.5 304 175.5C263.9 208.5 187.3 203.2 130.5 226C73.7 248.9 36.9 300 0 351L0 0Z" fill="#212d39"></path><path d="M263.3 0C260.6 53.4 258 106.9 228 131.6C197.9 156.4 140.4 152.4 97.9 169.5C55.3 186.7 27.7 225 0 263.3L0 0Z" fill="#616770"></path><path d="M175.5 0C173.8 35.6 172 71.3 152 87.7C132 104.2 93.6 101.6 65.3 113C36.9 124.5 18.4 150 0 175.5L0 0Z" fill="#a7a9ac"></path><path d="M87.8 0C86.9 17.8 86 35.6 76 43.9C66 52.1 46.8 50.8 32.6 56.5C18.4 62.2 9.2 75 0 87.8L0 0Z" fill="#cccccc"></path></g></svg>